<svg xmlns="http://www.w3.org/2000/svg" xmlns:xlink="http://www.w3.org/1999/xlink" width="1155" height="1155" viewBox="0 0 1155 1155">
  <defs>
    <clipPath id="clip-path">
      <rect id="Rectangle_19490" data-name="Rectangle 19490" width="1155" height="1155" transform="translate(1598.018 9310.462)" fill="#fff"/>
    </clipPath>
  </defs>
  <g id="Mask_Group_298" data-name="Mask Group 298" transform="translate(-1598.018 -9310.462)" clip-path="url(#clip-path)">
    <path id="Path_81242" data-name="Path 81242" d="M482.5-447.2a485.781,485.781,0,0,0-363,260.5A475.521,475.521,0,0,0,76.872,123.732,483.074,483.074,0,0,0,310.959,446.078a483.817,483.817,0,0,0,335.178,55.349c13.285-2.766,28.078-5.584,32.909-6.339a1013.944,1013.944,0,0,1,125.8,25.162c124.037,28.63,123.282,28.379,134.5,16.452,10.064-10.668,7.4-18.518-27.072-86.9L879.87,385.19l20.43-21.032a484.031,484.031,0,0,0,131.737-260.5,760.113,760.113,0,0,0-1.258-155.99A486.836,486.836,0,0,0,803.837-382.029a480.329,480.329,0,0,0-183.515-65.118,640.567,640.567,0,0,0-137.825,0Z" transform="translate(1602.708 9833.053)" fill="none" stroke="#000" stroke-width="5"/>
  </g>
</svg>
