<svg id="Group_60740" data-name="Group 60740" xmlns="http://www.w3.org/2000/svg" width="15.438" height="13.735" viewBox="0 0 15.438 13.735">
  <path id="heart" d="M1.225,1.344A4.151,4.151,0,0,1,4.313,0,3.884,3.884,0,0,1,6.739.837a4.963,4.963,0,0,1,.981,1.024A4.96,4.96,0,0,1,8.7.837,3.883,3.883,0,0,1,11.126,0a4.151,4.151,0,0,1,3.088,1.344,4.826,4.826,0,0,1,1.225,3.3A5.746,5.746,0,0,1,13.907,8.4,32.65,32.65,0,0,1,10.074,12c-.531.453-1.133.966-1.758,1.512a.906.906,0,0,1-1.193,0C6.5,12.964,5.9,12.451,5.364,12A32.631,32.631,0,0,1,1.532,8.4,5.745,5.745,0,0,1,0,4.639a4.825,4.825,0,0,1,1.225-3.3Zm0,0" transform="translate(0 0)" fill="#ff292f"/>
</svg>
