<svg id="Stockholm-icons-_-Communication-_-Write" data-name="Stockholm-icons-/-Communication-/-Write" xmlns="http://www.w3.org/2000/svg" width="24" height="24" viewBox="0 0 24 24">
  <rect id="bound" width="24" height="24" fill="none"/>
  <path id="Path-11" d="M12.267,18.232,12.009,5.459a1.5,1.5,0,0,1,.417-1.069L15,1.7l2.588,2.7a1.5,1.5,0,0,1,.417,1.042l-.037,12.763a1.5,1.5,0,0,1-1.5,1.5h-2.7A1.5,1.5,0,0,1,12.267,18.232Z" transform="translate(17.53 28.665) rotate(-135)" fill="#05a5ec"/>
  <path id="Path-57" d="M12.9,2a1,1,0,0,1,0,2H6A2,2,0,0,0,4,6V18a2,2,0,0,0,2,2H18a2,2,0,0,0,2-2V13a1,1,0,0,1,2,0v5a4,4,0,0,1-4,4H6a4,4,0,0,1-4-4V6A4,4,0,0,1,6,2Z" fill="#05a5ec" opacity="0.3"/>
</svg>
