<svg id="Stockholm-icons-_-Devices-_-Server" data-name="Stockholm-icons-/-Devices-/-Server" xmlns="http://www.w3.org/2000/svg" width="24" height="24" viewBox="0 0 24 24">
  <rect id="bound" width="24" height="24" fill="none"/>
  <path id="Combined-Shape" d="M5,2H19a2,2,0,0,1,2,2V6a2,2,0,0,1-2,2H5A2,2,0,0,1,3,6V4A2,2,0,0,1,5,2Zm6,2a1,1,0,0,0,0,2h5a1,1,0,0,0,0-2ZM7,6A1,1,0,1,0,6,5,1,1,0,0,0,7,6Z" fill="#05a5ec" fill-rule="evenodd" opacity="0.3"/>
  <path id="Combined-Shape-Copy" d="M5,9H19a2,2,0,0,1,2,2v2a2,2,0,0,1-2,2H5a2,2,0,0,1-2-2V11A2,2,0,0,1,5,9Zm6,2a1,1,0,0,0,0,2h5a1,1,0,0,0,0-2ZM7,13a1,1,0,1,0-1-1A1,1,0,0,0,7,13Z" fill="#05a5ec" fill-rule="evenodd"/>
  <path id="Combined-Shape-Copy-2" d="M5,16H19a2,2,0,0,1,2,2v2a2,2,0,0,1-2,2H5a2,2,0,0,1-2-2V18A2,2,0,0,1,5,16Zm6,2a1,1,0,0,0,0,2h5a1,1,0,0,0,0-2ZM7,20a1,1,0,1,0-1-1A1,1,0,0,0,7,20Z" fill="#05a5ec" fill-rule="evenodd"/>
</svg>
