<svg id="Stockholm-icons-_-Communication-_-Chat6" data-name="Stockholm-icons-/-Communication-/-Chat6" xmlns="http://www.w3.org/2000/svg" width="24" height="24" viewBox="0 0 24 24">
  <rect id="bound" width="24" height="24" fill="none"/>
  <path id="Path_81899" data-name="Path 81899" d="M14.486,18,12.8,21.057a1,1,0,0,1-1.709.069L9.017,18H5a3,3,0,0,1-3-3V6A3,3,0,0,1,5,3H19a3,3,0,0,1,3,3v9a3,3,0,0,1-3,3Z" fill="#05a5ec" fill-rule="evenodd" opacity="0.3"/>
  <path id="Path_81900" data-name="Path 81900" d="M6,7h9a1,1,0,0,1,0,2H6A1,1,0,0,1,6,7Zm0,4h5a1,1,0,0,1,0,2H6a1,1,0,0,1,0-2Z" fill="#05a5ec" fill-rule="evenodd"/>
</svg>
