<svg id="Stockholm-icons-_-Home-_-Timer" data-name="Stockholm-icons-/-Home-/-Timer" xmlns="http://www.w3.org/2000/svg" width="24" height="24" viewBox="0 0 24 24">
  <rect id="bound" width="24" height="24" fill="none"/>
  <path id="Combined-Shape" d="M12,21a8,8,0,1,1,8-8A8,8,0,0,1,12,21Z" fill="#05a5ec" fill-rule="evenodd" opacity="0.3"/>
  <path id="Combined-Shape-2" data-name="Combined-Shape" d="M13,5.062a8.11,8.11,0,0,0-2,0V4H10a1,1,0,0,1,0-2h4a1,1,0,0,1,0,2H13Z" fill="#05a5ec" fill-rule="evenodd"/>
  <path id="Combined-Shape-3" data-name="Combined-Shape" d="M16.71,6.533l.826-.826A1,1,0,0,1,18.95,7.121l-.783.783A8.043,8.043,0,0,0,16.71,6.533Z" fill="#05a5ec" fill-rule="evenodd"/>
  <path id="Path-107" d="M11.963,7.5h.074a.5.5,0,0,1,.5.462l.423,5.5A.5.5,0,0,1,12.5,14l-.038,0h-.92a.5.5,0,0,1-.5-.5c0-.013,0-.026,0-.038l.423-5.5A.5.5,0,0,1,11.963,7.5Z" fill="#05a5ec" fill-rule="evenodd"/>
</svg>
